<svg xmlns="http://www.w3.org/2000/svg" width="47.252" height="47.252" viewBox="0 0 47.252 47.252">
  <path id="Icon_ionic-ios-resize" data-name="Icon ionic-ios-resize" d="M37.737,5.625H27.248a1.3,1.3,0,0,0-1.3,1.3v.019a1.3,1.3,0,0,0,1.3,1.3H34.51L8.245,34.51V27.248a1.3,1.3,0,0,0-1.3-1.3H6.925a1.3,1.3,0,0,0-1.3,1.3V37.737a1.3,1.3,0,0,0,1.3,1.3H17.414a1.3,1.3,0,0,0,1.3-1.3v-.019a1.3,1.3,0,0,0-1.3-1.3H10.153L36.418,10.153v7.261a1.3,1.3,0,0,0,1.3,1.3h.019a1.3,1.3,0,0,0,1.3-1.3V6.925A1.3,1.3,0,0,0,37.737,5.625Z" transform="translate(23.626 -7.955) rotate(45)" fill="#fff"/>
</svg>
