<svg xmlns="http://www.w3.org/2000/svg" width="90.495" height="38.93" viewBox="0 0 90.495 38.93">
  <g id="icon-logo" transform="translate(-578.242 -80.732)">
    <path id="path2" d="M341.849,68.007,327.257,53.249l-13.278,16.1,5.967,6.036.389.37.4.35.409.331.428.312.428.292.448.263.458.253.457.224.467.214.487.185.477.165.5.136.5.127.5.1.5.078.506.058.506.029.506.019.506-.01.506-.039.506-.058.5-.078.506-.1.487-.127.5-.146.477-.165.487-.195.467-.224.457-.234.458-.273.448-.282.428-.312.389-.312.389-.321.37-.331.36-.331.35-.35.341-.35.331-.35.321-.36.312-.36.3-.37.282-.36.273-.35.263-.36.253-.341.243-.35.224-.331.419-.642.36-.584.312-.535.263-.458.2-.37.146-.282.088-.185Z" transform="translate(326.888 38.104)" fill="#ad272c" fill-rule="evenodd"/>
    <path id="path4" d="M210,11.4l-7.311-7.369-.38-.37-.4-.35-.419-.321-.419-.3-.438-.273-.438-.253-.458-.224-.467-.2L198.8,1.56l-.477-.156-.477-.127-.487-.117-.487-.078-.5-.058-.5-.039-.5-.01-.5.01-.487.039-.5.058-.487.078-.487.117-.487.127-.477.156-.467.175-.467.2-.448.224-.448.253-.438.273-.419.3-.419.321-.4.35-.38.37-7.311,7.379L167.507,27.5l5.977,6.036.38.37.4.341.419.321.419.3.438.273.438.253.458.224.467.2.467.175.477.156.477.136.487.107.5.088.487.058.5.029.5.02.5-.02.5-.029.487-.058.5-.088.477-.107.487-.136L184.2,36l.467-.175.467-.2.448-.224.448-.253.438-.273.419-.3.409-.321.4-.341.389-.37L195.4,26.16Z" transform="translate(444.145 79.95)" fill="#db2242" fill-rule="evenodd"/>
    <path id="path6" d="M46.873,10.436l-7.3-7.379-.38-.37-.4-.35-.419-.321-.419-.292-.438-.282L37.07,1.2,36.623.964,36.155.769,35.688.584,35.211.428,34.734.3,34.247.195l-.5-.088L33.264.049l-.5-.039-.5-.01-.5.01-.5.039-.487.058-.5.088L29.808.3l-.477.127-.477.156-.467.185-.467.195-.448.234-.448.243-.438.282-.419.292-.419.321-.389.35-.389.37-7.3,7.369v.01L0,28.212l.019.058.049.146.088.243.136.331.175.409.224.467.127.263.146.273.156.292.175.292.185.312.195.321.224.321.224.341.253.341.263.35.282.35.292.36.312.36.341.36.35.36.37.37.389.36.4.36.428.35.458.36.428.311.448.292.467.273.467.243.487.224.487.2.506.175.506.165.516.127.516.117.526.088.535.068.526.049.535.029h.535l.535-.02.526-.049.526-.058.526-.088.526-.107.516-.136.506-.146.5-.175.5-.2.487-.214.467-.243.458-.263.448-.282.438-.3.419-.331.4-.35.389-.37Z" transform="translate(578.242 80.732)" fill="#00abaf" fill-rule="evenodd"/>
    <path id="path8" d="M321.9,53.249,307.291,68.007l1.937,1.9Z" transform="translate(332.242 38.104)" fill="#942328" fill-rule="evenodd"/>
    <path id="path10" d="M175.422,53.3l-14.6,14.748,1.947,1.947Z" transform="translate(449.498 38.065)" fill="#942328" fill-rule="evenodd"/>
  </g>
</svg>
