<svg id="logo" xmlns="http://www.w3.org/2000/svg" width="462.592" height="183.909" viewBox="0 0 462.592 183.909">
  <path id="path2" d="M396.753,97.079,353.414,53.249l-39.436,47.82L331.7,118.995l1.157,1.1,1.185,1.041,1.214.983,1.272.925,1.272.867,1.33.781,1.359.752,1.359.665,1.388.636,1.446.549,1.417.491,1.474.4,1.475.376,1.474.289,1.474.231,1.5.173,1.5.087,1.5.058,1.5-.029,1.5-.116,1.5-.173,1.474-.231,1.5-.289,1.446-.376,1.474-.434,1.417-.492,1.446-.578,1.388-.665,1.359-.694,1.359-.81,1.33-.838,1.272-.925,1.156-.925,1.157-.954,1.1-.983,1.07-.983,1.041-1.041,1.012-1.041.983-1.041.954-1.07.925-1.07.9-1.1.838-1.07.81-1.041.781-1.07.752-1.012.723-1.041.665-.983,1.243-1.908,1.07-1.735.925-1.59.781-1.359.607-1.1.434-.839.26-.549Z" transform="translate(-127.988 -21.706)" fill="#ad272c" fill-rule="evenodd"/>
  <path id="path4" d="M293.707,31.941,271.994,10.055l-1.128-1.1-1.185-1.041-1.243-.954-1.243-.9-1.3-.81-1.3-.752-1.359-.665-1.388-.607-1.388-.52-1.417-.463-1.417-.376-1.446-.347-1.446-.231-1.474-.173-1.475-.116L250.311.976l-1.474.029-1.446.116-1.474.173-1.446.231-1.446.347-1.446.376-1.417.463-1.388.52-1.388.607-1.33.665-1.33.752-1.3.81-1.243.9-1.243.954-1.185,1.041-1.128,1.1L206.914,31.97,167.507,79.761l17.752,17.925,1.128,1.1,1.185,1.012,1.243.954,1.243.9,1.3.81,1.3.752,1.359.665,1.388.607,1.388.521,1.417.462,1.417.4,1.446.318,1.474.26,1.446.173,1.474.087,1.475.058,1.474-.058,1.474-.087,1.446-.173,1.474-.26,1.417-.318,1.446-.4,1.417-.462,1.388-.521,1.388-.607,1.33-.665,1.33-.752,1.3-.81,1.243-.9,1.214-.954,1.185-1.012,1.156-1.1,21.713-21.915Z" transform="translate(-68.281 -0.398)" fill="#db2242" fill-rule="evenodd"/>
  <path id="path6" d="M139.211,30.994,117.527,9.078,116.4,7.98l-1.185-1.041-1.243-.954-1.243-.867-1.3-.838-1.33-.723-1.33-.694-1.388-.578-1.388-.549-1.417-.463L103.158.9,101.712.578l-1.474-.26L98.792.145,97.318.029,95.843,0,94.368.029,92.894.145,91.448.318l-1.474.26L88.528.9l-1.417.376-1.417.463-1.388.549-1.388.578-1.33.694-1.33.723-1.3.838-1.243.867-1.243.954L75.315,7.98l-1.156,1.1L52.475,30.965v.029L0,83.787l.058.173.145.434.26.723.4.983.521,1.214L2.053,88.7l.376.78.434.81.463.867.52.867.549.925.578.954.665.954L6.3,95.872l.752,1.012.781,1.041.839,1.041.867,1.07.925,1.07,1.012,1.07,1.041,1.07,1.1,1.1,1.156,1.07,1.185,1.07,1.272,1.041,1.359,1.07,1.272.925,1.33.867,1.388.81,1.388.723,1.446.665,1.446.607,1.5.521,1.5.491,1.532.376,1.532.347,1.561.26,1.59.2,1.561.145,1.59.087h1.59l1.59-.058,1.561-.145,1.561-.173,1.561-.26,1.561-.318,1.532-.4,1.5-.434,1.474-.52,1.474-.607,1.446-.636,1.388-.723,1.359-.781,1.33-.838,1.3-.9,1.243-.983L63.9,106.8l1.156-1.1Z" transform="translate(0)" fill="#00abaf" fill-rule="evenodd"/>
  <path id="path8" d="M350.688,53.249l-43.4,43.831,5.754,5.638Z" transform="translate(-125.262 -21.706)" fill="#942328" fill-rule="evenodd"/>
  <path id="path10" d="M204.188,53.3,160.82,97.1l5.782,5.782Z" transform="translate(-65.555 -21.726)" fill="#942328" fill-rule="evenodd"/>
  <g id="Grupo_1" data-name="Grupo 1" transform="translate(137.765 113.219)">
    <path id="path12" d="M241.711,239.187h-7V206.748h10.061l8.211,24.864,8.269-24.864H271.2v32.439h-6.708l.549-25.211-8.269,25.211h-7.257l-8.529-25.443Z" transform="translate(-233.443 -197.496)" fill="#fff" fill-rule="evenodd"/>
    <path id="path14" d="M330.649,206.748v5.638H319l-.434.029-.434.029-.4.058-.4.058-.376.087-.376.116-.347.116-.347.116-.347.145-.318.145-.318.173-.289.2-.289.2-.26.2-.26.231-.231.26-.231.26-.231.26-.173.289-.2.318-.145.318-.145.347-.145.318-.116.376-.116.376-.087.376-.058.4-.058.434-.029.434-.029.434v.463h18.851V225.6H311.8v.983l.087.9.058.434.058.4.058.376.087.376.116.347.116.318.116.318.145.289.145.289.145.231.173.231.174.231.376.376.347.347.376.318.347.26.347.231.318.173.347.145.318.087.694.116.81.116.9.029,1.012.029h11.189v5.638H318.391l-.781-.029-.723-.058-.694-.058-.694-.058-.636-.116-.607-.116-.607-.116-.549-.173-.578-.2-.578-.231-.578-.26-.578-.289-.549-.347-.578-.376-.578-.4-.665-.607-.607-.636-.289-.318-.289-.347-.26-.318-.231-.376-.26-.347-.2-.347-.231-.376-.2-.376-.173-.4-.173-.376-.173-.4-.145-.4-.26-.838-.26-.838-.173-.867-.173-.9-.116-.9-.087-.925-.058-.925-.029-.954.087-1.937.029-.867.058-.867.116-.867.173-.838.173-.809.231-.81.231-.781.26-.752.289-.723.289-.665.347-.636.347-.578.4-.607.463-.607.578-.636.665-.694.347-.347.376-.289.4-.318.4-.26.434-.231.463-.231.463-.2.492-.173.983-.289.954-.26.9-.173.9-.145.867-.116.867-.058.867-.058h12.172Z" transform="translate(-261.694 -197.496)" fill="#fff" fill-rule="evenodd"/>
    <path id="path16" d="M370.926,239.247h-7.083V212.532H353.463v-5.638h27.929v5.638H370.926Z" transform="translate(-281.848 -197.556)" fill="#fff" fill-rule="evenodd"/>
    <path id="path18" d="M406.082,232.821h-7.228L412.5,200.382h7.2l13.849,32.439h-7.575L423,225.072H408.886Zm5-13.5H420.8l-4.915-12.4Zm4.6-21.915h-3.094l4.337-6.274H423.4Z" transform="translate(-300.351 -191.13)" fill="#fff" fill-rule="evenodd"/>
    <path id="path20" d="M487.931,206.748l-13.444,32.439H467.4l-14.08-32.439h7.691l9.743,24.142,9.974-24.142Z" transform="translate(-322.555 -197.496)" fill="#fff" fill-rule="evenodd"/>
    <path id="path22" d="M514.723,206.748h7.141v32.439h-7.141Z" transform="translate(-347.583 -197.496)" fill="#fff" fill-rule="evenodd"/>
    <path id="path24" d="M559.27,233.81v5.378H548.6l-.867-.029-.809-.058-.752-.087-.376-.058-.376-.058-.4-.116-.376-.087-.4-.145-.4-.145-.433-.173-.434-.173-.4-.2-.4-.2-.4-.26-.376-.231-.376-.289-.376-.289-.347-.318-.318-.318-.318-.347-.289-.347-.289-.347-.231-.376-.231-.347-.2-.376-.2-.4-.145-.376-.289-.781-.231-.81-.2-.867-.116-.867-.116-.867-.058-.925-.058-.925V206.748h6.765v20.3l.029.521.058.607.058.694.058.347.087.347.087.347.087.318.145.347.145.289.145.318.174.289.2.289.2.26.231.26.289.231.289.2.318.2.347.173.4.145.4.145.434.116.463.116.491.058.521.087.549.029.578.029h8.731Z" transform="translate(-356.655 -197.496)" fill="#fff" fill-rule="evenodd"/>
    <path id="path26" d="M580.52,239.187h-7.228l13.646-32.439h7.2l13.878,32.439h-7.6l-2.978-7.748H583.325Zm5-13.5h9.715l-4.915-12.4Z" transform="translate(-371.457 -197.496)" fill="#fff" fill-rule="evenodd"/>
    <path id="path28" d="M241.154,292.463l-.145.376-.2.376-.231.318-.26.318-.347.347-.376.289-.4.26-.4.2-.434.145-.434.116-.492.087H236.5l-.434-.058-.434-.116-.434-.145-.4-.2-.376-.2-.347-.26-.318-.318-.2-.2-.2-.231-.145-.231-.145-.231-.087-.26-.116-.26-.087-.26-.058-.289-.058-.318-.029-.318-.029-.347v-.376l-.029-.376v-2.747l.029-.376V286.8l.029-.347.029-.318.058-.289.058-.289.087-.289.116-.26.087-.231.145-.26.145-.231.2-.2.2-.231.347-.318.347-.26.376-.231.376-.173.4-.145.434-.087.463-.087h.9l.434.058.4.087.376.116.376.145.318.2.318.2.289.231.289.26.231.289.231.318.173.318.173.347.145.376.116.4.087.4H240l-.058-.289-.087-.289-.116-.26-.116-.231-.145-.231-.173-.2-.173-.2-.173-.173-.231-.173-.2-.145-.231-.116-.231-.087-.26-.058-.26-.058-.289-.029-.289-.029-.318.029-.289.029-.289.087-.289.087-.289.145-.26.145-.231.173-.2.2-.145.173-.116.145-.115.173-.116.173-.058.173-.087.2-.058.2-.058.231-.029.26-.029.26-.029.318-.029.318v.752l-.029.434v.954l.029.434v.752l.029.347.029.289.029.289.029.26.058.231.058.2.087.2.058.173.116.173.115.173.116.145.145.145.2.2.231.173.26.174.289.115.289.116.289.058.289.029.318.029.347-.029.318-.029.318-.087.318-.145.318-.145.26-.173.26-.231.231-.231.2-.231.145-.26.116-.26.087-.26.087-.26.029-.318.029-.347.029-.347V289.8h-3.093v-1.185h4.423v2.515l-.058.492-.087.434Z" transform="translate(-232.567 -228.394)" fill="#fff" fill-rule="evenodd"/>
    <path id="path30" d="M252.826,293.856v.347l.029.347.058.289.058.289.087.26.116.26.145.231.145.2.173.173.2.174.2.116.231.116.231.087.289.058.26.058h.694l.318-.058.289-.087.289-.087.231-.144.26-.173.26-.2.26-.231.867.752-.347.318-.318.26-.347.231-.347.2-.4.145-.434.087-.231.058-.231.029h-.954l-.4-.058-.376-.087-.347-.116-.347-.145-.318-.173-.26-.231-.26-.26-.231-.289-.231-.318-.174-.376-.145-.4-.116-.434-.087-.463-.058-.52v-1.07l.058-.492.058-.463.116-.4.116-.4.174-.376.2-.318.231-.318.231-.26.289-.231.289-.2.318-.173.318-.116.376-.116.376-.029.4-.029.4.029.376.029.376.087.347.145.318.145.289.2.26.231.26.26.2.289.2.318.145.347.145.376.116.4.058.4.058.463v1.041Zm4.539-1.417-.029-.173-.029-.174-.029-.145-.029-.145-.058-.173-.058-.173-.145-.26-.173-.26-.231-.231-.231-.2-.289-.145-.318-.116-.318-.058-.318-.029-.347.029-.318.058-.289.116-.289.145-.26.2-.2.231-.173.26-.145.26-.116.347-.087.289-.058.347v.463h4.568v-.231Z" transform="translate(-240.307 -231.06)" fill="#fff" fill-rule="evenodd"/>
    <path id="path32" d="M273.679,297.876v-5.349l-.029-.289-.029-.26-.029-.231-.058-.231-.087-.2-.116-.2-.116-.173-.116-.145-.145-.145-.173-.116-.173-.087-.2-.087-.2-.058-.2-.058-.231-.029h-.491l-.2.029-.231.058-.2.058-.173.087-.2.087-.145.116-.173.145-.116.145-.116.173-.116.2-.087.2-.058.231-.029.231-.029.26-.029.289v5.349H268.1V289.2h1.272v.954l.26-.26.26-.2.26-.2.318-.145.289-.116.347-.087.347-.029.376-.029h.318l.347.058.289.058.289.087.26.115.26.145.231.145.2.2.231.231.173.26.145.26.145.289.087.318.087.318.029.376v5.927Z" transform="translate(-247.051 -231.06)" fill="#fff" fill-rule="evenodd"/>
    <path id="path34" d="M286.672,296.125l-.26-.029-.26-.029-.231-.058-.2-.087-.2-.087-.2-.116-.145-.145-.145-.145-.144-.174-.116-.173-.087-.2-.087-.2-.058-.2-.029-.231-.029-.231v-5.551h-1.1v-.954h1.1v-2.718h1.243v2.718H287.6v.954h-1.879v5.291l.029.289.058.231.087.231.116.174.087.087.087.058.087.058.116.058.231.058.289.029h.694v1.1Z" transform="translate(-253.278 -229.309)" fill="#fff" fill-rule="evenodd"/>
    <path id="path36" d="M294.947,293.856l.029.347.029.347.029.289.087.289.087.26.116.26.145.231.145.2.173.173.173.174.231.116.231.116.231.087.26.058.289.058h.665l.347-.058.289-.087.26-.087.26-.144.26-.173.26-.2.231-.231.867.752-.318.318-.347.26-.318.231-.376.2-.376.145-.434.087-.231.058-.231.029h-.954l-.4-.058-.376-.087-.347-.116-.347-.145-.318-.173-.289-.231-.26-.26-.231-.289-.2-.318-.173-.376-.145-.4-.116-.434-.087-.463-.058-.52-.029-.549.029-.52.029-.492.087-.463.116-.4.116-.4.174-.376.2-.318.2-.318.26-.26.26-.231.289-.2.318-.173.347-.116.347-.116.4-.029.4-.029.4.029.376.029.376.087.347.145.318.145.289.2.26.231.26.26.2.289.2.318.144.347.145.376.087.4.087.4.029.463.029.463v.578Zm4.568-1.417-.029-.173-.029-.174-.029-.145-.029-.145-.058-.173-.058-.173-.145-.26-.173-.26-.231-.231-.26-.2-.26-.145-.318-.116-.318-.058-.318-.029-.347.029-.318.058-.289.116-.289.145-.26.2-.2.231-.2.26-.145.26-.116.347-.058.289-.058.347-.029.463h4.6l-.029-.231Z" transform="translate(-257.476 -231.06)" fill="#fff" fill-rule="evenodd"/>
    <path id="path38" d="M322.544,301.75v-4.915l-.289.318-.26.26-.289.2-.289.145-.318.087-.318.058-.347.058h-.665l-.318-.029-.289-.087-.289-.087-.26-.087-.231-.145-.231-.144-.173-.174-.173-.173-.145-.173-.116-.2-.116-.2-.087-.2-.087-.231-.087-.231-.058-.231-.058-.26-.029-.231-.029-.26-.029-.26-.029-.26v-.26l-.029-.231v-.52l.029-.26v-.26l.029-.26.029-.231.029-.26.029-.26.058-.231.058-.231.087-.231.087-.231.087-.231.116-.2.116-.174.145-.2.173-.173.173-.173.231-.145.231-.116.26-.115.289-.087.289-.058.318-.058h.665l.347.058.318.058.318.116.289.116.289.2.289.26.26.318V289.2h1.272V301.75Zm0-8.211v-.318l-.029-.318-.029-.318-.029-.289-.029-.289-.058-.289-.087-.231-.116-.26-.116-.2-.174-.2-.173-.173-.2-.145-.231-.116-.26-.116-.318-.029-.318-.029-.347.029-.289.029-.289.116-.231.116-.2.145-.173.173-.145.2-.116.2-.116.26-.087.231-.058.289-.058.289-.029.289-.029.318-.029.318v.636l.029.289.029.318.029.289.058.289.058.289.087.26.116.231.116.231.145.173.173.173.2.173.231.116.289.087.289.058h.665l.318-.058.26-.087.231-.116.2-.173.173-.173.174-.173.116-.231.116-.231.087-.26.058-.289.029-.289.029-.289.029-.318.029-.289Z" transform="translate(-266.947 -231.06)" fill="#fff" fill-rule="evenodd"/>
    <path id="path40" d="M339.325,297.955v-.983l-.231.26-.26.2-.289.2-.289.145-.318.115-.347.087-.347.058h-.723l-.318-.029-.318-.058-.289-.116-.26-.116-.26-.116-.231-.173-.2-.2-.2-.231-.2-.26-.145-.26-.116-.318-.087-.289-.087-.347-.029-.347-.029-.376v-5.522h1.272v5.32l.029.289.029.26.029.26.058.231.087.2.087.173.116.174.145.173.145.116.173.116.174.116.173.058.2.087.2.029.231.029h.492l.231-.029.2-.029.2-.087.2-.058.173-.116.174-.116.145-.145.145-.144.116-.174.116-.2.058-.2.087-.231.029-.231.029-.26.029-.289v-5.32H340.6v8.674Z" transform="translate(-273.811 -231.14)" fill="#fff" fill-rule="evenodd"/>
    <path id="path42" d="M351.124,293.856v.347l.029.347.058.289.058.289.116.26.087.26.145.231.145.2.174.173.2.174.2.116.231.116.26.087.26.058.289.058h.665l.318-.058.318-.087.26-.087.26-.144.231-.173.26-.2.26-.231.867.752-.347.318-.318.26-.347.231-.347.2-.4.145-.434.087-.231.058-.231.029h-.954l-.376-.058-.4-.087-.347-.116-.347-.145-.289-.173-.289-.231-.26-.26-.231-.289-.2-.318-.173-.376-.173-.4-.115-.434-.087-.463-.058-.52v-1.07l.058-.492.058-.463.116-.4.145-.4.145-.376.2-.318.231-.318.231-.26.289-.231.289-.2.318-.173.318-.116.376-.116.376-.029.4-.029.4.029.4.029.347.087.347.145.318.145.289.2.26.231.26.26.231.289.173.318.173.347.116.376.116.4.058.4.058.463v1.041Zm4.539-1.417-.029-.173v-.174l-.029-.145-.058-.145-.058-.173-.058-.173-.145-.26-.173-.26-.2-.231-.26-.2-.289-.145-.289-.116-.318-.058-.347-.029-.347.029-.318.058-.289.116-.289.145-.231.2-.231.231-.173.26-.144.26-.116.347-.087.289-.029.347-.029.463h4.568v-.231Z" transform="translate(-280.376 -231.06)" fill="#fff" fill-rule="evenodd"/>
    <path id="path44" d="M375.677,296.125l-.289-.029-.26-.029-.231-.058-.2-.087-.2-.087-.173-.116-.173-.145-.145-.145-.116-.174-.116-.173-.116-.2-.058-.2-.058-.2-.058-.231-.029-.231v-5.551h-1.1v-.954h1.1v-2.718h1.272v2.718h1.85v.954h-1.85v5.58l.058.231.087.231.145.174.058.087.087.058.087.058.116.058.26.058.289.029h.665v1.1Z" transform="translate(-289.548 -229.309)" fill="#fff" fill-rule="evenodd"/>
    <path id="path46" d="M388.581,290.85l-.174-.173-.173-.116-.173-.116-.145-.087-.173-.058-.2-.058-.231-.029h-.463l-.231.058-.2.029-.2.087-.173.087-.173.116-.173.145-.145.145-.116.173-.116.173-.087.2-.087.2-.058.2-.058.231L385,292.3v5.58h-1.272V289.2H385v1.041l.2-.26.231-.231.26-.174.318-.173.347-.145.347-.087.347-.058.376-.029h.318l.26.058.289.029.26.087.231.116.26.145.231.173.231.2Z" transform="translate(-294.183 -231.06)" fill="#fff" fill-rule="evenodd"/>
    <path id="path48" d="M400.412,297.876v-.839l-.26.26-.289.2-.26.145-.289.116-.289.087-.318.087-.376.029h-.867l-.376-.029-.347-.058-.318-.087-.26-.116-.26-.116-.231-.173-.2-.2-.173-.173-.116-.173-.116-.2-.087-.231-.087-.231-.058-.26-.029-.231v-.549l.058-.26.058-.231.087-.26.087-.2.145-.2.145-.2.173-.173.2-.173.231-.116.26-.116.26-.116.289-.058.318-.058.318-.029.376-.029h2.6v-1.041l-.029-.231-.058-.2-.058-.173-.058-.173-.087-.145-.116-.145-.116-.145-.145-.116-.145-.087-.173-.087-.2-.058-.231-.058-.26-.029-.26-.029h-.694l-.347.058-.318.058-.26.087-.231.144-.2.174-.231.2-.2.26-.838-.781.289-.376.318-.26.145-.145.173-.087.173-.087.174-.087.376-.116.434-.087.463-.029.52-.029h.4l.4.058.376.058.347.058.318.116.26.116.26.145.231.174.2.2.174.2.145.26.116.26.116.26.058.318.029.318.029.347v5.9Zm0-4.019h-2.429l-.463.029-.4.087-.174.029-.144.087-.145.058-.145.116-.116.087-.087.116-.087.116-.058.145-.058.145-.029.173-.029.173v.376l.029.174.029.145.058.145.058.145.087.116.087.116.116.087.145.087.145.087.144.058.174.029.434.087.492.029.26-.029h.26l.26-.029.26-.029.231-.087.231-.087.2-.145.231-.2.087-.116.087-.116.087-.173.058-.173.058-.2.029-.2.029-.231v-1.214Z" transform="translate(-298.7 -231.06)" fill="#fff" fill-rule="evenodd"/>
    <path id="path50" d="M417.193,297.876v-5.349l-.029-.289v-.26l-.058-.231-.058-.231-.087-.2-.087-.2-.116-.173-.145-.145-.144-.145-.174-.116-.173-.087-.173-.087-.2-.058-.231-.058-.231-.029h-.463l-.231.029-.231.058-.2.058-.174.087-.173.087-.173.116-.145.145-.145.145-.115.173-.116.2-.058.2-.087.231-.029.231-.029.26v5.638h-1.272V289.2h1.272v.954l.231-.26.26-.2.26-.2.318-.145.318-.116.318-.087.347-.029.376-.029h.347l.318.058.289.058.289.087.289.115.231.145.231.145.231.2.2.231.174.26.173.26.116.289.087.318.087.318.029.376.029.376v5.551Z" transform="translate(-305.564 -231.06)" fill="#fff" fill-rule="evenodd"/>
    <path id="path52" d="M434.051,295.331l-.029.318-.029.289-.087.26-.116.26-.145.231-.173.2-.173.2-.231.173-.231.173-.289.145-.289.116-.289.087-.347.087-.347.058-.376.029h-.925l-.492-.058-.492-.087-.434-.116-.434-.174-.4-.231-.376-.26-.376-.318.838-.838.26.26.289.2.318.173.318.145.376.087.347.087.4.029.376.029.52-.029.463-.087.2-.029.174-.087.173-.058.174-.116.145-.087.115-.115.116-.116.087-.145.058-.145.058-.174.029-.173v-.463l-.087-.231-.087-.2-.173-.173-.173-.145-.26-.116-.318-.087-.347-.029-1.417-.145-.318-.029-.289-.029-.26-.087-.26-.058-.231-.116-.2-.087-.2-.115-.174-.145-.145-.145-.144-.173-.116-.173-.087-.2-.087-.231-.029-.231-.029-.231-.029-.26.029-.289.029-.289.087-.26.087-.231.145-.231.144-.2.174-.2.2-.174.231-.145.231-.145.26-.116.289-.087.318-.087.318-.029.318-.058h.781l.463.058.4.058.434.116.376.116.376.173.318.2.318.2-.838.838-.231-.173-.26-.145-.289-.115-.26-.087-.318-.087-.318-.029-.318-.029-.318-.029-.463.029-.376.058-.173.058-.173.087-.145.058-.116.087-.116.116-.116.116-.058.116-.087.116-.058.145-.029.145-.029.145v.173l.029.26.058.231.116.2.145.173.2.145.26.116.318.087.376.058,1.417.116.26.029.26.029.26.058.26.058.2.087.231.116.173.116.2.116.145.145.145.174.116.2.116.2.058.2.058.26.058.26Z" transform="translate(-311.811 -231.06)" fill="#fff" fill-rule="evenodd"/>
    <path id="path54" d="M444.107,287.588v7.662h-1.272v-7.662h-1.128v-.954h1.128v-1.879l.029-.231.029-.231.058-.2.087-.2.087-.2.116-.173.145-.173.144-.145.145-.145.2-.116.173-.087.231-.087.231-.058.26-.029.26-.029h.925v1.1h-.694l-.289.029-.231.058-.116.058-.087.058-.087.058-.087.087-.116.174-.087.231-.058.231v1.908h1.85v.954Z" transform="translate(-317.819 -228.434)" fill="#fff" fill-rule="evenodd"/>
    <path id="path56" d="M458.211,293.539v.492l-.029.463-.087.491-.087.434-.058.231-.058.2-.087.2-.116.2-.116.2-.116.173-.145.174-.145.173-.26.231-.26.174-.26.173-.318.145-.318.116-.318.087-.376.058h-.78l-.347-.058-.347-.087-.318-.116-.289-.145-.289-.173-.26-.174-.231-.231-.173-.173-.145-.174-.116-.173-.116-.2-.173-.4-.145-.434-.058-.2-.029-.231-.058-.231v-.231l-.029-.231-.029-.26v-.983l.029-.26.029-.231v-.231l.058-.231.029-.231.058-.231.145-.434.173-.4.116-.174.116-.2.145-.174.173-.173.231-.2.26-.2.289-.173.289-.145.318-.116.347-.087.347-.029.4-.029.376.029.376.029.318.087.318.116.318.145.26.173.26.2.26.2.145.173.145.174.116.2.116.174.116.2.087.2.058.231.058.2.087.463.087.463.029.491Zm-1.272,0v-.752l-.029-.376-.058-.347-.087-.347-.145-.318-.145-.289-.2-.26-.173-.144-.173-.145-.173-.087-.2-.087-.2-.087-.231-.058-.2-.029h-.463l-.231.029-.2.058-.2.087-.2.087-.173.087-.174.145-.173.144-.116.116-.087.145-.087.145-.087.145-.116.318-.087.347-.058.347-.029.376-.029.376v.752l.029.347.029.376.058.347.087.347.116.347.087.145.087.145.087.116.116.116.173.173.174.116.173.116.2.087.2.058.2.058.231.029h.463l.2-.029.231-.058.2-.058.2-.087.173-.116.173-.116.173-.173.087-.116.116-.116.087-.145.058-.145.145-.347.087-.347.058-.347.029-.376v-.723Z" transform="translate(-321.659 -231.06)" fill="#fff" fill-rule="evenodd"/>
    <path id="path58" d="M472.53,290.85l-.173-.173-.173-.116-.173-.116-.145-.087-.173-.058-.2-.058-.2-.029h-.491l-.231.058-.2.029-.2.087-.173.087-.173.116-.173.145-.116.145-.145.173-.116.173-.087.2-.087.2-.058.2-.058.231-.029.231v5.58h-1.272V289.2h1.272v1.041l.2-.26.231-.231.26-.174.318-.173.347-.145.347-.087.347-.058.376-.029h.318l.289.058.26.029.26.087.26.116.231.145.231.173.231.2Z" transform="translate(-328.404 -231.06)" fill="#fff" fill-rule="evenodd"/>
    <path id="path60" d="M491.376,297.876v-5.349l-.029-.289-.029-.26-.029-.231-.058-.231-.087-.2-.116-.2-.116-.173-.116-.145-.145-.145-.173-.116-.174-.087-.2-.087-.2-.058-.2-.058-.231-.029h-.463l-.231.029-.2.058-.2.058-.2.087-.173.087-.174.116-.145.145-.145.145-.116.145-.116.2-.087.173-.058.2-.058.231-.029.231v5.754H485.8v-5.349l-.029-.289v-.26l-.058-.231-.058-.231-.087-.2-.087-.2-.116-.173-.144-.145-.145-.145-.173-.116-.174-.087-.173-.087-.2-.058-.231-.058-.231-.029h-.463l-.231.029-.231.058-.2.058-.173.087-.2.087-.145.116-.173.145-.116.145-.145.173-.087.2-.087.2-.058.231-.058.231-.029.26v5.638h-1.272V289.2h1.272v.954l.231-.26.26-.2.289-.2.289-.145.347-.116.318-.087.347-.029.376-.029.434.029.4.058.376.116.347.145.318.231.289.231.26.289.231.347.26-.347.289-.289.318-.231.347-.231.376-.145.4-.116.4-.058.463-.029h.347l.318.058.318.058.289.087.26.116.26.145.231.173.2.173.231.231.173.26.173.26.116.289.116.318.058.347.058.347v5.927Z" transform="translate(-333.517 -231.06)" fill="#fff" fill-rule="evenodd"/>
    <path id="path62" d="M510.814,297.876v-.839l-.26.26-.26.2-.289.145-.26.116-.289.087-.347.087-.376.029h-.838l-.4-.029-.347-.058-.289-.087-.289-.116-.26-.116-.231-.173-.2-.2-.145-.173-.145-.173-.115-.2-.087-.231-.058-.231-.058-.26-.029-.231-.029-.26.029-.289.029-.26.058-.231.087-.26.116-.2.116-.2.173-.2.174-.173.2-.173.231-.116.231-.116.289-.116.289-.058.289-.058.347-.029.347-.029h2.6v-1.041l-.029-.231-.029-.2-.058-.173-.087-.173-.087-.145-.087-.145-.116-.145-.145-.116-.173-.087-.173-.087-.2-.058-.231-.058-.231-.029-.26-.029h-.694l-.376.058-.289.058-.26.087-.231.144-.231.174-.2.2-.2.26-.867-.781.289-.376.318-.26.173-.145.173-.087.173-.087.174-.087.376-.116.434-.087.462-.029.492-.029h.434l.4.058.347.058.347.058.318.116.289.116.26.145.231.174.2.2.173.2.145.26.116.26.087.26.058.318.058.318v6.245Zm0-4.019h-2.429l-.463.029-.376.087-.173.029-.173.087-.145.058-.116.116-.116.087-.087.116-.087.116-.087.145-.058.145-.029.173-.029.173v.376l.029.174.029.145.058.145.087.145.058.116.116.116.116.087.116.087.145.087.173.058.173.029.4.087.491.029.289-.029h.26l.26-.029.231-.029.26-.087.2-.087.231-.145.2-.2.116-.116.087-.116.058-.173.087-.173.029-.2.029-.2.029-.231v-1.214Z" transform="translate(-343.703 -231.06)" fill="#fff" fill-rule="evenodd"/>
    <path id="path64" d="M529.365,284.109v-1.417h1.417v1.417Zm.058,11.16V286.6h1.272v8.674Z" transform="translate(-353.551 -228.454)" fill="#fff" fill-rule="evenodd"/>
    <path id="path66" d="M541.866,295.27v-1.041l-.289.318-.26.26-.289.2-.318.145-.289.087-.347.058-.347.058h-.665l-.318-.029-.289-.087-.289-.087-.26-.087-.231-.145-.2-.144-.2-.174-.145-.173-.145-.173-.144-.2-.116-.2-.087-.2-.087-.231-.058-.231-.087-.231-.029-.26-.058-.231-.029-.26-.029-.26-.029-.26v-.491l-.029-.26.029-.26v-.52l.029-.26.029-.231.029-.26.058-.26.029-.231.087-.231.058-.231.087-.231.087-.231.116-.2.144-.174.145-.2.145-.173.2-.173.2-.145.231-.116.26-.116.289-.087.289-.058.318-.058h.665l.347.058.318.058.318.116.289.116.289.2.289.26.26.289v-4.886h1.272V295.27Zm-.029-4.337v-.318l-.029-.318v-.318l-.029-.289-.058-.289-.058-.289-.087-.231-.116-.26-.116-.2-.145-.2-.2-.173-.2-.145-.231-.116-.26-.116-.289-.029-.347-.029-.347.029-.289.029-.26.116-.231.116-.2.145-.2.173-.145.2-.116.2-.116.26-.087.231-.058.289-.058.289-.029.289-.029.318v.318l-.029.318.029.318v.289l.029.318.029.289.058.289.058.289.087.26.116.231.116.231.145.173.2.173.2.173.231.116.26.087.289.058h.694l.289-.058.26-.087.231-.116.2-.173.2-.173.145-.173.116-.231.116-.231.087-.26.058-.289.058-.289.029-.289v-.318l.029-.289Z" transform="translate(-356.337 -228.454)" fill="#fff" fill-rule="evenodd"/>
    <path id="path68" d="M553.675,293.856l.029.347.029.347.029.289.087.289.087.26.116.26.116.231.173.2.173.173.173.174.231.116.231.116.231.087.26.058.289.058h.665l.347-.058.289-.087.26-.087.26-.144.26-.173.231-.2.26-.231.868.752-.318.318-.347.26-.318.231-.376.2-.376.145-.434.087-.231.058-.26.029h-.925l-.4-.058-.376-.087-.376-.116-.318-.145-.318-.173-.289-.231-.26-.26-.231-.289-.2-.318-.173-.376-.145-.4-.116-.434-.087-.463-.058-.52-.029-.549.029-.52.029-.492.087-.463.087-.4.145-.4.173-.376.174-.318.231-.318.26-.26.26-.231.289-.2.318-.173.347-.116.347-.116.4-.029.376-.029.434.029.376.029.376.087.318.145.318.145.318.2.26.231.231.26.231.289.2.318.145.347.145.376.087.4.087.4.029.463.029.463v.578Zm4.568-1.417-.029-.173-.029-.174-.029-.145-.029-.145-.058-.173-.058-.173-.145-.26-.2-.26-.2-.231-.26-.2-.289-.145-.289-.116-.318-.058-.347-.029-.318.029-.318.058-.289.116-.289.145-.26.2-.231.231-.173.26-.145.26-.115.347-.058.289-.058.347-.029.463h4.6l-.029-.231Z" transform="translate(-362.942 -231.06)" fill="#fff" fill-rule="evenodd"/>
    <path id="path70" d="M568.9,284.109v-1.417h1.417v1.417Zm.058,11.16V286.6h1.272v8.674Z" transform="translate(-369.667 -228.454)" fill="#fff" fill-rule="evenodd"/>
    <path id="path72" d="M581,297.876v-.839l-.289.26-.26.2-.26.145-.289.116-.289.087-.347.087-.376.029h-.838l-.376-.029-.347-.058-.318-.087-.289-.116-.231-.116-.231-.173-.231-.2-.144-.173-.145-.173-.087-.2-.116-.231-.058-.231-.058-.26-.029-.231v-.549l.029-.26.058-.231.087-.26.116-.2.116-.2.173-.2.173-.173.2-.173.231-.116.231-.116.289-.116.289-.058.289-.058.347-.029.347-.029H581v-.809l-.029-.231-.029-.231-.029-.2-.058-.173-.058-.173-.087-.145-.116-.145-.116-.145-.144-.116-.145-.087-.2-.087-.2-.058-.231-.058-.231-.029-.26-.029h-.694l-.347.058-.318.058-.26.087-.231.144-.231.174-.2.2-.2.26-.867-.781.318-.376.289-.26.173-.145.174-.087.174-.087.174-.087.376-.116.434-.087.463-.029.491-.029h.434l.4.058.376.058.318.058.318.116.289.116.26.145.231.174.2.2.173.2.144.26.116.26.087.26.087.318.029.318v6.245Zm0-4.019h-2.458l-.434.029-.4.087-.173.029-.173.087-.145.058-.116.116-.116.087-.087.116-.087.116-.087.145-.029.145-.058.173v.173l-.029.174.029.2v.174l.058.145.029.145.087.145.087.116.087.116.116.087.116.087.145.087.173.058.173.029.4.087.492.029.289-.029h.26l.26-.029.231-.029.26-.087.231-.087.2-.145.2-.2.116-.116.087-.116.087-.173.058-.173.029-.2.058-.2v-.231l.029-.26Z" transform="translate(-372.313 -231.06)" fill="#fff" fill-rule="evenodd"/>
    <path id="path74" d="M597.9,295.331l-.029.318-.029.289-.087.26-.115.26-.145.231-.173.2-.174.2-.231.173-.26.173-.26.145-.289.116-.318.087-.318.087-.347.058-.376.029h-.925l-.521-.058-.463-.087-.463-.116-.4-.174-.4-.231-.4-.26-.347-.318.839-.838.26.26.289.2.318.173.318.145.347.087.376.087.376.029.4.029.52-.029.434-.087.2-.029.2-.087.173-.058.174-.116.144-.087.116-.115.116-.116.087-.145.058-.145.058-.174.029-.173v-.173l-.029-.289-.058-.231-.116-.2-.145-.173-.2-.145-.231-.116-.318-.087-.347-.029-1.417-.145-.318-.029-.289-.029-.26-.087-.26-.058-.231-.116-.2-.087-.2-.115-.174-.145-.173-.145-.116-.173-.116-.173-.087-.2-.087-.231-.058-.231-.029-.231v-.549l.058-.289.087-.26.087-.231.145-.231.145-.2.173-.2.2-.174.231-.145.231-.145.26-.116.289-.087.318-.087.289-.029.347-.058h.781l.463.058.4.058.4.116.4.116.347.173.347.2.289.2-.809.838-.26-.173-.231-.145-.289-.115-.289-.087-.289-.087-.318-.029-.318-.029-.318-.029-.463.029-.376.058-.173.058-.173.087-.145.058-.116.087-.116.116-.116.116-.087.116-.058.116-.058.145-.029.145-.029.145v.434l.087.231.087.2.173.173.2.145.26.116.318.087.376.058,1.388.116.289.029.26.029.26.058.231.058.231.087.231.116.173.116.173.116.173.145.145.174.116.2.087.2.087.2.058.26.029.26Z" transform="translate(-378.6 -231.06)" fill="#fff" fill-rule="evenodd"/>
    <path id="path76" d="M614.831,293.856v.347l.058.347.029.289.087.289.087.26.116.26.116.231.173.2.173.173.173.174.231.116.2.116.26.087.26.058.289.058h.665l.347-.058.289-.087.26-.087.26-.144.26-.173.231-.2.26-.231.867.752-.318.318-.347.26-.318.231-.376.2-.376.145-.434.087-.231.058-.26.029h-.925l-.4-.058-.376-.087-.376-.116-.318-.145-.318-.173-.289-.231-.26-.26-.231-.289-.2-.318-.173-.376-.145-.4-.145-.434-.058-.463-.058-.52-.029-.549.029-.52.029-.492.087-.463.087-.4.145-.4.173-.376.173-.318.231-.318.26-.26.26-.231.289-.2.318-.173.347-.116.347-.116.376-.029.4-.029.434.029.376.029.376.087.318.145.318.145.289.2.289.231.231.26.231.289.173.318.173.347.145.376.087.4.087.4.029.463.029.463v.578Zm4.539-1.417v-.173l-.029-.174-.029-.145-.029-.145-.058-.173-.058-.173-.145-.26-.2-.26-.2-.231-.26-.2-.289-.145-.289-.116-.318-.058-.347-.029-.318.029-.318.058-.318.116-.26.145-.26.2-.231.231-.173.26-.145.26-.116.347-.058.289-.058.347-.029.463h4.6l-.029-.231Z" transform="translate(-387.871 -231.06)" fill="#fff" fill-rule="evenodd"/>
    <path id="path78" d="M641.283,297.875v-5.638l-.029-.26-.029-.231-.058-.231-.087-.2-.116-.2-.116-.173-.116-.145-.173-.145-.145-.116-.173-.087-.2-.087-.2-.058-.2-.058-.231-.029h-.463l-.231.029-.2.058-.2.058-.2.087-.173.087-.173.116-.145.145-.145.145-.145.145-.087.2-.087.173-.058.2-.058.231-.029.231v5.754h-1.272v-5.349l-.029-.289-.029-.26-.029-.231-.058-.231-.087-.2-.087-.2-.116-.173-.145-.145-.145-.145-.173-.116-.173-.087-.2-.087-.173-.058-.231-.058-.231-.029h-.463l-.231.029-.231.058-.2.058-.173.087-.2.087-.145.116-.174.145-.116.145-.145.173-.087.2-.087.2-.058.231-.058.231-.029.26v5.638h-1.272V289.2h1.272v.954l.231-.26.26-.2.289-.2.289-.145.318-.116.347-.087.347-.029.376-.029.434.029.4.058.376.116.347.145.318.231.289.231.26.289.231.347.26-.347.289-.289.318-.231.347-.231.376-.145.4-.116.4-.058.463-.029h.318l.347.058.289.058.318.087.26.116.26.145.231.173.2.173.231.231.173.26.173.26.116.289.116.318.058.347.058.347v5.927Z" transform="translate(-394.635 -231.06)" fill="#fff" fill-rule="evenodd"/>
    <path id="path80" d="M663.634,284.109v-1.417h1.417v1.417Zm.058,11.16V286.6h1.272v8.674Z" transform="translate(-408.284 -228.454)" fill="#fff" fill-rule="evenodd"/>
    <path id="path82" d="M676.828,297.876v-5.349l-.029-.289-.029-.26-.029-.231-.058-.231-.087-.2-.116-.2-.115-.173-.116-.145-.144-.145-.173-.116-.174-.087-.2-.087-.2-.058-.2-.058-.231-.029h-.492l-.231.029-.2.058-.2.058-.2.087-.173.087-.145.116-.173.145-.116.145-.115.173-.116.2-.087.2-.058.231-.029.231-.029.26-.029.289v5.349h-1.272V289.2h1.272v.954l.26-.26.26-.2.26-.2.289-.145.318-.116.347-.087.347-.029.347-.029h.347l.347.058.289.058.289.087.26.115.26.145.231.145.2.2.231.231.173.26.145.26.144.289.087.318.058.318.058.376v5.927Z" transform="translate(-411.388 -231.06)" fill="#fff" fill-rule="evenodd"/>
    <path id="path84" d="M694.321,293.539l-.029.492-.029.463-.058.491-.087.434-.058.231-.087.2-.087.2-.087.2-.116.2-.144.173-.145.174-.144.173-.232.231-.26.174-.289.173-.289.145-.318.116-.347.087-.376.058h-.752l-.376-.058-.347-.087-.318-.116-.289-.145-.289-.173-.26-.174-.231-.231-.174-.173-.144-.174-.116-.173-.116-.2-.173-.4-.145-.434-.029-.2-.058-.231-.029-.231-.029-.231-.029-.231v-.26l-.029-.26v-.491l.029-.231v-.26l.029-.231.029-.231.029-.231.058-.231.029-.231.145-.434.173-.4.116-.174.116-.2.144-.174.174-.173.231-.2.26-.2.289-.173.289-.145.318-.116.347-.087.376-.029.376-.029.376.029.376.029.347.087.318.116.289.145.289.173.26.2.232.2.144.173.145.174.144.2.116.174.087.2.087.2.087.231.058.2.087.463.058.463.029.491Zm-1.272,0-.029-.376v-.376l-.029-.376-.058-.347-.087-.347-.116-.318-.173-.289-.2-.26-.173-.144-.173-.145-.174-.087-.2-.087-.2-.087-.2-.058-.231-.029h-.463l-.231.029-.2.058-.2.087-.173.087-.2.087-.173.145-.144.144-.116.116-.116.145-.087.145-.058.145-.145.318-.087.347-.058.347-.029.376-.029.376v.752l.029.347.029.376.058.347.087.347.145.347.058.145.087.145.116.116.116.116.144.173.173.116.2.116.173.087.2.058.2.058.231.029H691l.231-.029.2-.058.2-.058.2-.087.174-.116.173-.116.173-.173.116-.116.087-.116.087-.145.087-.145.116-.347.087-.347.058-.347.029-.376v-.347Z" transform="translate(-417.894 -231.06)" fill="#fff" fill-rule="evenodd"/>
    <path id="path86" d="M705.427,297.955H704.3l-3.18-8.674h1.388l2.371,6.968,2.371-6.968h1.359Z" transform="translate(-423.564 -231.14)" fill="#fff" fill-rule="evenodd"/>
    <path id="path88" d="M720.93,297.876v-.839l-.26.26-.26.2-.289.145-.26.116-.318.087-.318.087-.376.029h-.839l-.4-.029-.347-.058-.289-.087-.289-.116-.26-.116-.231-.173-.2-.2-.144-.173-.145-.173-.116-.2-.087-.231-.087-.231-.029-.26-.029-.231-.029-.26.029-.289.029-.26.058-.231.087-.26.116-.2.116-.2.145-.2.2-.173.2-.173.2-.116.26-.116.26-.116.289-.058.318-.058.347-.029.347-.029h2.6v-1.041l-.029-.231-.029-.2-.058-.173-.087-.173-.087-.145-.087-.145-.145-.145-.115-.116-.174-.087-.173-.087-.2-.058-.231-.058-.231-.029-.289-.029H718.3l-.347.058-.289.058-.26.087-.26.144-.2.174-.2.2-.2.26-.867-.781.289-.376.318-.26.174-.145.173-.087.145-.087.2-.087.376-.116.4-.087.463-.029.52-.029h.434l.376.058.376.058.347.058.318.116.289.116.26.145.2.174.2.2.174.2.173.26.115.26.087.26.058.318.058.318v6.245Zm0-4.019H718.5l-.463.029-.376.087-.174.029-.173.087-.145.058-.116.116-.116.087-.116.116-.087.116-.058.145-.058.145-.029.173-.029.173v.376l.029.174.029.145.058.145.058.145.087.116.087.116.116.087.145.087.145.087.145.058.2.029.4.087.491.029.26-.029h.289l.26-.029.231-.029.231-.087.231-.087.232-.145.2-.2.087-.116.116-.116.058-.173.058-.173.058-.2.029-.2.029-.231v-1.214Z" transform="translate(-429.353 -231.06)" fill="#fff" fill-rule="evenodd"/>
    <path id="path90" d="M736.737,297.7l-.347.116-.376.087-.4.058h-.838l-.376-.058-.376-.087-.347-.116-.347-.145-.318-.2-.289-.231-.289-.26-.231-.289-.231-.318-.173-.376-.173-.4-.116-.434-.086-.463-.058-.52-.029-.521.029-.549.058-.491.086-.463.116-.434.173-.4.173-.376.231-.318.231-.289.289-.26.289-.231.318-.2.347-.145.347-.145.376-.087.376-.029.4-.029.434.029.4.029.376.087.347.145.318.173.318.2.347.289.318.347-.867.81-.231-.26-.231-.2-.231-.173-.231-.145-.231-.087-.26-.058-.26-.058h-.318l-.289.029-.318.029-.26.087-.26.116-.26.116-.231.173-.2.2-.173.231-.145.231-.116.231-.116.231-.058.26-.058.289-.058.347v.347l-.029.4.029.376v.376l.058.318.058.289.058.26.116.26.116.231.145.2.173.231.2.2.231.173.26.145.26.116.26.058.318.058h.607l.26-.058.26-.058.231-.087.231-.144.231-.173.231-.2.231-.26.867.838-.318.318-.347.289-.318.231Zm-2.024,3.99h-1.388l1.243-2.631h1.186Z" transform="translate(-435.879 -231.06)" fill="#fff" fill-rule="evenodd"/>
    <path id="path92" d="M751.191,295.329v-.839l-.26.26-.289.2-.26.145-.289.116-.289.087-.318.087-.376.029h-.867l-.376-.029-.347-.058-.318-.087-.26-.116-.26-.116-.231-.173-.2-.2-.173-.174-.116-.173-.116-.2-.087-.231-.087-.231-.058-.26-.029-.231v-.549l.058-.26.058-.231.087-.26.087-.2.145-.2.144-.2.174-.173.2-.173.231-.116.26-.116.26-.116.289-.058.318-.058.318-.029.376-.029h2.6v-1.041l-.029-.231-.058-.2-.058-.173-.058-.173-.087-.145-.116-.145-.116-.145-.144-.116-.145-.087-.173-.087-.2-.058-.231-.058-.26-.029-.26-.029h-.694l-.347.058-.318.058-.26.087-.231.144-.2.174-.231.2-.2.26-.839-.781.289-.376.318-.26.145-.145.173-.087.173-.087.173-.087.376-.116.433-.087.463-.029.521-.029h.4l.4.058.376.058.347.058.318.116.26.116.26.145.231.174.2.2.173.2.145.26.116.26.116.26.058.318.029.318.029.347v5.9Zm-.289-10.871-.174.058-.2.058-.145.029h-.347l-.173-.029-.145-.029-.144-.058-.289-.116-.318-.174-.231-.145-.26-.116-.116-.058-.116-.029-.145-.029h-.116l-.231.029-.2.058-.116.058-.145.116-.173.116-.173.2-.665-.636.289-.289.26-.2.231-.145.2-.116.173-.087.2-.058h.173l.145-.029.2.029h.173l.145.058.145.029.289.145.318.174.26.145.231.116.231.087h.462l.2-.087.145-.058.145-.087.144-.145.2-.173.636.636-.289.26-.26.231-.231.145Zm.289,6.852h-2.429l-.463.029-.4.087-.174.029-.144.087-.145.058-.144.116-.116.087-.087.116-.087.116-.058.145-.058.145-.029.173-.029.173v.376l.029.174.029.144.058.145.058.145.087.116.087.116.116.087.144.087.145.087.144.058.174.029.434.087.491.029.26-.029h.26l.26-.029.26-.029.231-.087.231-.087.2-.145.231-.2.087-.116.087-.116.087-.173.058-.173.058-.2.029-.2.029-.231V291.31Z" transform="translate(-441.689 -228.513)" fill="#fff" fill-rule="evenodd"/>
    <path id="path94" d="M768.723,293.539l-.029.492-.029.463-.058.491-.087.434-.058.231-.087.2-.087.2-.087.2-.116.2-.115.173-.145.174-.173.173-.231.231-.26.174-.289.173-.289.145-.318.116-.347.087-.347.058h-.781l-.376-.058-.318-.087-.318-.116-.318-.145-.26-.173-.26-.174-.26-.231-.144-.173-.145-.174-.145-.173-.087-.2-.2-.4-.116-.434-.058-.2-.058-.231-.029-.231-.029-.231v-.231l-.029-.26v-.983l.029-.26v-.231l.029-.231.029-.231.058-.231.058-.231.116-.434.2-.4.087-.174.145-.2.145-.174.144-.173.26-.2.26-.2.26-.173.318-.145.318-.116.318-.087.376-.029.376-.029.4.029.347.029.347.087.318.116.289.145.289.173.26.2.231.2.173.173.145.174.115.2.116.174.087.2.087.2.087.231.058.2.087.463.058.463.029.491Zm-1.272,0v-.376l-.029-.376-.029-.376-.058-.347-.087-.347-.116-.318-.173-.289-.2-.26-.144-.144-.173-.145-.2-.087-.173-.087-.231-.087-.2-.058-.231-.029h-.463l-.2.029-.2.058-.2.087-.2.087-.174.087-.173.145-.173.144-.116.116-.116.145-.087.145-.058.145-.116.318-.087.347-.087.347-.029.376v1.474l.029.376.087.347.087.347.116.347.058.145.087.145.116.116.116.116.173.173.173.116.174.116.2.087.2.058.2.058.2.029h.463l.231-.029.2-.058.231-.058.173-.087.2-.116.173-.116.144-.173.116-.116.087-.116.087-.145.087-.145.116-.347.087-.347.058-.347.029-.376.029-.347Z" transform="translate(-448.234 -231.06)" fill="#fff" fill-rule="evenodd"/>
    <path id="path96" d="M778.137,302.77v-1.677h1.648v1.677Z" transform="translate(-454.959 -235.954)" fill="#fff" fill-rule="evenodd"/>
  </g>
</svg>
